<svg height="28" overflow="visible" viewBox="0 0 28  28" width="28" xmlns="http://www.w3.org/2000/svg"><g><defs><path id="path-1678256101467421951" d="M0 28 C0 28 0 0 0 0 C0 0 28 0 28 0 C28 0 28 28 28 28 C28 28 0 28 0 28 Z" vector-effect="non-scaling-stroke"/></defs> <path style="stroke-width: 0; stroke-linecap: butt; stroke-linejoin: miter; fill: none;" d="M0 28 C0 28 0 0 0 0 C0 0 28 0 28 0 C28 0 28 28 28 28 C28 28 0 28 0 28 Z" vector-effect="non-scaling-stroke"/></g><g><defs><path id="path-1678256101466421949" d="M23.40031,4.61015c-0.48078,-0.43877 -1.14838,-0.53929 -1.71976,-0.25894l-5.21076,2.53308l-3.0276,-5.9668c-0.29459,-0.56711 -0.84516,-0.91748 -1.44171,-0.91748c-0.59656,0 -1.14712,0.35037 -1.44171,0.91748l-3.0276,5.9668l-5.21076,-2.53308c-0.57243,-0.27989 -1.24057,-0.18028 -1.72355,0.25694c-0.48298,0.43723 -0.69708,1.13627 -0.5523,1.80329l2.61568,12.19255c0.10107,0.47701 0.37647,0.88794 0.76205,1.13707c0.25832,0.16905 0.55367,0.25852 0.85473,0.25894c0.14635,-0.0003 0.29194,-0.02304 0.43251,-0.06755c4.76776,-1.44108 9.80383,-1.44108 14.57159,0c0.43533,0.12512 0.89829,0.05629 1.28724,-0.19139c0.38811,-0.24606 0.66441,-0.65834 0.76205,-1.13707l2.62598,-12.19255c0.14316,-0.66719 -0.07239,-1.3654 -0.55609,-1.8013zM16.11967,14.62988c-0.04698,0.45943 -0.40098,0.80774 -0.82384,0.81058h-0.08238c-2.13651,-0.23643 -4.2894,-0.23643 -6.42592,0c-0.45207,0.05255 -0.85762,-0.30517 -0.90622,-0.79933c-0.04201,-0.49626 0.28819,-0.93746 0.74145,-0.99071c2.24559,-0.25894 4.50986,-0.25894 6.75545,0c0.44891,0.05327 0.77754,0.48739 0.74145,0.97946z" vector-effect="non-scaling-stroke"/></defs><path style="stroke-width: 0; stroke-linecap: butt; stroke-linejoin: miter; fill: rgb(186, 144, 80);" d="M23.40031,4.61015c-0.48078,-0.43877 -1.14838,-0.53929 -1.71976,-0.25894l-5.21076,2.53308l-3.0276,-5.9668c-0.29459,-0.56711 -0.84516,-0.91748 -1.44171,-0.91748c-0.59656,0 -1.14712,0.35037 -1.44171,0.91748l-3.0276,5.9668l-5.21076,-2.53308c-0.57243,-0.27989 -1.24057,-0.18028 -1.72355,0.25694c-0.48298,0.43723 -0.69708,1.13627 -0.5523,1.80329l2.61568,12.19255c0.10107,0.47701 0.37647,0.88794 0.76205,1.13707c0.25832,0.16905 0.55367,0.25852 0.85473,0.25894c0.14635,-0.0003 0.29194,-0.02304 0.43251,-0.06755c4.76776,-1.44108 9.80383,-1.44108 14.57159,0c0.43533,0.12512 0.89829,0.05629 1.28724,-0.19139c0.38811,-0.24606 0.66441,-0.65834 0.76205,-1.13707l2.62598,-12.19255c0.14316,-0.66719 -0.07239,-1.3654 -0.55609,-1.8013zM16.11967,14.62988c-0.04698,0.45943 -0.40098,0.80774 -0.82384,0.81058h-0.08238c-2.13651,-0.23643 -4.2894,-0.23643 -6.42592,0c-0.45207,0.05255 -0.85762,-0.30517 -0.90622,-0.79933c-0.04201,-0.49626 0.28819,-0.93746 0.74145,-0.99071c2.24559,-0.25894 4.50986,-0.25894 6.75545,0c0.44891,0.05327 0.77754,0.48739 0.74145,0.97946z" transform="translate(2, 4) rotate(0)" vector-effect="non-scaling-stroke"/></g></svg>