<svg xmlns:xlink="http://www.w3.org/1999/xlink" xmlns="http://www.w3.org/2000/svg" viewBox="0 0 328.41 94.68" width="328.41"  height="94.68" ><g id="Layer_2" data-name="Layer 2"><g id="Layer_1-2" data-name="Layer 1"><polygon points="73.98 82.98 82.62 88.02 87.75 80.37 78.84 75.33 73.98 82.98"/><polygon points="65.97 75.33 60.84 82.98 69.57 88.02 74.61 80.37 65.97 75.33"/><polygon points="288.27 39.15 293.22 31.23 284.49 26.19 279.36 33.84 288.27 39.15"/><polygon points="280.08 31.23 271.44 26.19 266.49 33.84 275.22 39.15 280.08 31.23"/><polygon points="282.78 19.89 274.05 14.76 268.92 22.41 277.65 27.54 282.78 19.89"/><polygon points="315.09 21.69 306.36 16.74 301.5 24.39 310.41 29.61 315.09 21.69"/><path d="M319.77,41.4q-.54-1.17-1.08-2.25-2.52-4.23-4.86-5.49l-1.17,1.62-1,2.34a6.87,6.87,0,0,0-.9,2.16l-.36,1.71,3.78,4.95q1.26,1.35,2.61,5.49l1.08,3.69.27,3q-1.08,2.52-9.09,2.52h-5.58L301,60.93l-2.34-.45q-3.78-1.71-4.23-3.78l2.16-10.08-.81-.63L290.79,64.8q-.45,1.08-.9,1.08a1.05,1.05,0,0,1-.72-.63l-1.26-1.53-.18-.18-.18-.45-.63-1-1.35-2.61,1.62-7.74,1.62-6.84-1-.72-2.52,8.73-1,3.6a12.05,12.05,0,0,1-7.74,4,19.38,19.38,0,0,1-5.4.45H265l-.36-.27.09-1,5.67-15.93-1-.27L266,50.94a15.36,15.36,0,0,1-10.53,9,46.07,46.07,0,0,1-11.61,1.17h-5.13q-8,0-9.09-2.52l-.45-1.53-.27-1.17-.18-.9h-.09a13.33,13.33,0,0,0-4.37-5.67,28.73,28.73,0,0,0-7.06-4,45.34,45.34,0,0,0-8.28-2.38,59.46,59.46,0,0,0-8.1-1c-2.88-.12-6.23-.19-10-.23l-7.24,0q-9.27,0-22.86.27-15.93.54-27,.54t-17.19-.54a69.32,69.32,0,0,1-9.41-1,42.42,42.42,0,0,1-6.88-1.85,20.07,20.07,0,0,1-4-1.89,2.48,2.48,0,0,1-1.35-2q0-.9,5.4-5.67a79,79,0,0,1,7.15-5.94q4-3,8.87-6.21,2.88-1.8,5.89-3.42a57.11,57.11,0,0,1,6.53-3,8.61,8.61,0,0,0,.9-.5,1.76,1.76,0,0,1,.9-.22L135.72,0A39.2,39.2,0,0,0,128,2.88q-4.32,2.07-9.72,5.31-7.74,4.86-13.23,9.14a39.81,39.81,0,0,0-8.46,8.59,41.29,41.29,0,0,0-4.46,7.79,18.37,18.37,0,0,0-1.57,7.15q0,5.31,6.75,7.47,5.4,2.16,19.17,3.24a44,44,0,0,0,5.13.18q2.7,0,9.58-.13t25.16-.41q18.27-.27,24.48-.31l7.74,0a94.9,94.9,0,0,1,10.44.36q2.79.36,5.58.63c1.86.18,3.64.44,5.35.76a28.5,28.5,0,0,1,4.86,1.4A14.58,14.58,0,0,1,219,56.52l.09.09a17,17,0,0,1,3.6,4.5H198.45L85.41,61v0A10.3,10.3,0,0,1,79,58.68a12.76,12.76,0,0,1-2.79-4l.18-2.16.45-2.61.81-2.16-.81-.81-2.16,5-1.53,3.24q-1.17,2.52-5,4.14a16.91,16.91,0,0,1-7.83,1.8H57.15l-2.34-.18Q50,59.31,48.87,56.7V55q0-1.8-1.53-11.7l-1.71-9.54.18-.63.54-.9.81.36,1,.09L50.31,24l-6.66-2.61a14.24,14.24,0,0,1-3.42-3.11,5.14,5.14,0,0,1-.9-3l.18-2.25.27-1,.72-1.17-1-.36L38,14q-2.52,6.66-2.52,9.45a10.06,10.06,0,0,0,3,4.86l4,3.24.63,4.05.45,3.51.81,7.65a6.54,6.54,0,0,1,.45,2.79l.27,2.52.36,1.53V56l.09,8.73.27,5-.54,3.15-.9,2.61q-1.44,3.69-8.73,6.93a28.31,28.31,0,0,1-7.83,2.7,30,30,0,0,1-6.75.81l-3.42-.36Q9.9,84,7,81.81a11,11,0,0,1-4.41-9.27q0-2.34,2.25-9.63L8.73,51.66,7.65,51,2.79,65.25l-1.44,5L.54,73.62A37.3,37.3,0,0,0,0,79.2l.09,1.53q1.8,8,6.93,11.16,4.77,2.79,12.78,2.79a28.34,28.34,0,0,0,3.73-.27c1.35-.18,2.6-.39,3.74-.63a44.27,44.27,0,0,0,7-2.16q6.84-3,9.27-6.21,2.61-3.15,4.23-10.08a3,3,0,0,0,.45-1.62l.36-1.17V70.92l.18-2.16.09-2.07a7.24,7.24,0,0,0,3,2.88,7.53,7.53,0,0,0,2.34.86,13.36,13.36,0,0,0,1.8.13H60.3a13.31,13.31,0,0,0,7.83-2.88,21.56,21.56,0,0,0,4.77-4.86,13,13,0,0,0,12.51,7.74h4l128.79-.44c1.38,0,2.41,0,3.1,0a14.37,14.37,0,0,1,1.58.13,8,8,0,0,1,1,.23c.3.08.78.19,1.44.31.24-.48.48-.94.72-1.39s.48-.92.72-1.4l7.38,2.16,3.42.45,2.16-.09h5.76a29.48,29.48,0,0,0,5.94-.54l5.13-1.8a10.72,10.72,0,0,0,1.8,2,9,9,0,0,0,2.61.27h2.61q14.31,0,18.81-4.5l3.51,7.11q1.89,3.78,3.24,4.32l3.33-14a36.35,36.35,0,0,0,3.24,5.13A9.69,9.69,0,0,0,302,70.56h6l2-.18,2.25-.45,4.5-1.62q2-2.52,3.33-9a29,29,0,0,0,1.08-4.77q.18-1.71.45-3.15V48.78a14.49,14.49,0,0,0-.81-4.77A21.65,21.65,0,0,0,319.77,41.4Z"/><polygon points="319.68 16.74 314.46 24.39 323.28 29.61 328.41 21.69 319.68 16.74"/></g></g></svg>