<svg height="132.32999999999993" overflow="visible" viewBox="0 0 923.68  132.32999999999993" width="923.68" xmlns="http://www.w3.org/2000/svg"><g><defs><path id="path-1675922975036421963" d="M286.61 120.41 C275.42 124.86999999999999 264.04 128.78 253.03000000000003 132.32999999999998 C253.03000000000003 132.32999999999998 252.85000000000002 132.14999999999998 252.85000000000002 132.14999999999998 C252.85000000000002 132.14999999999998 254.22000000000003 125.86999999999998 254.22000000000003 125.86999999999998 C266.95000000000005 121.59999999999998 280.22 117.13999999999997 290.07000000000005 113.31999999999998 C290.07000000000005 113.31999999999998 290.25000000000006 113.58999999999997 290.25000000000006 113.58999999999997 C290.25000000000006 113.58999999999997 286.61 120.41 286.61 120.41 Z" vector-effect="non-scaling-stroke"/></defs> <path style="stroke-width: 0; stroke-linecap: butt; stroke-linejoin: miter; fill: rgb(224, 220, 206);" d="M286.61 120.40999999999997 C275.42 124.86999999999989 264.04 128.77999999999997 253.03000000000003 132.32999999999993 C253.03000000000003 132.32999999999993 252.85000000000002 132.14999999999986 252.85000000000002 132.14999999999986 C252.85000000000002 132.14999999999986 254.22000000000003 125.86999999999989 254.22000000000003 125.86999999999989 C266.95000000000005 121.59999999999991 280.22 117.13999999999987 290.07000000000005 113.31999999999994 C290.07000000000005 113.31999999999994 290.25000000000006 113.58999999999992 290.25000000000006 113.58999999999992 C290.25000000000006 113.58999999999992 286.61 120.40999999999997 286.61 120.40999999999997 Z" vector-effect="non-scaling-stroke"/></g><g><defs><path id="path-1675922975035421961" d="M33.8,7.09c-11.19,4.46 -22.57,8.37 -33.58,11.92l-0.22,-0.18l1.36,-6.28c12.74,-4.27 26,-8.73 35.85,-12.55l0.19,0.27zM33.8,20.74c-11.19,4.46 -22.57,8.37 -33.58,11.92l-0.18,-0.18l1.36,-6.28c12.74,-4.27 26,-8.73 35.85,-12.55l0.19,0.27z" vector-effect="non-scaling-stroke"/></defs><path style="stroke-width: 0; stroke-linecap: butt; stroke-linejoin: miter; fill: rgb(224, 220, 206);" d="M33.8,7.09c-11.19,4.46 -22.57,8.37 -33.58,11.92l-0.22,-0.18l1.36,-6.28c12.74,-4.27 26,-8.73 35.85,-12.55l0.19,0.27zM33.8,20.74c-11.19,4.46 -22.57,8.37 -33.58,11.92l-0.18,-0.18l1.36,-6.28c12.74,-4.27 26,-8.73 35.85,-12.55l0.19,0.27z" transform="translate(319, 18.66999999999996) rotate(0)" vector-effect="non-scaling-stroke"/></g><g><defs><path id="path-1675922975035421959" d="M170.59 49 C159.4 53.46 148 57.38 137 60.93 C137 60.93 136.82 60.74 136.82 60.74 C136.82 60.74 138.19 54.47 138.19 54.47 C150.92 50.19 164.19 45.73 174.04 41.91 C174.04 41.91 174.22 42.18 174.22 42.18 C174.22 42.18 170.59 49 170.59 49 Z" vector-effect="non-scaling-stroke"/></defs> <path style="stroke-width: 0; stroke-linecap: butt; stroke-linejoin: miter; fill: rgb(224, 220, 206);" d="M170.58999999999995 49 C159.39999999999995 53.45999999999998 147.99999999999994 57.379999999999995 136.99999999999994 60.93000000000001 C136.99999999999994 60.93000000000001 136.81999999999994 60.74000000000001 136.81999999999994 60.74000000000001 C136.81999999999994 60.74000000000001 138.18999999999994 54.47000000000003 138.18999999999994 54.47000000000003 C150.91999999999993 50.19 164.18999999999994 45.73000000000002 174.03999999999994 41.90999999999997 C174.03999999999994 41.90999999999997 174.21999999999994 42.18000000000001 174.21999999999994 42.18000000000001 C174.21999999999994 42.18000000000001 170.58999999999995 49 170.58999999999995 49 Z" vector-effect="non-scaling-stroke"/></g><g><defs><path id="path-1675922975035421957" d="M30.36,23.84c-0.67161,-0.4422 -1.40673,-0.77941 -2.18,-1c-5.1,6.46 -14.29,10.09 -19,11.82c-1.46,0 -8.37,-0.54 -9,-1.63l-0.18,-0.46c8.1,-3.18 17.29,-6.73 22.75,-10.83c-7.28,-1.27 -11,-4 -11,-9.28c0,-7 6.64,-12.46 12.37,-12.46c3.46,0 7.83,3.27 7.83,12.92c0.00686,1.29354 -0.1785,2.58093 -0.55,3.82c1.17178,0.12616 2.2964,0.53075 3.28,1.18zM27.36,16.19c0.17697,-0.5253 0.26814,-1.07569 0.27,-1.63c-0.09,-4.1 -2.91,-8.92 -6.37,-8.92c-2.73,0 -5.28,2 -5.28,3.73c0,3.09 4.55,5.46 11.38,6.87z" vector-effect="non-scaling-stroke"/></defs><path style="stroke-width: 0; stroke-linecap: butt; stroke-linejoin: miter; fill: rgb(224, 220, 206);" d="M30.36,23.84c-0.67161,-0.4422 -1.40673,-0.77941 -2.18,-1c-5.1,6.46 -14.29,10.09 -19,11.82c-1.46,0 -8.37,-0.54 -9,-1.63l-0.18,-0.46c8.1,-3.18 17.29,-6.73 22.75,-10.83c-7.28,-1.27 -11,-4 -11,-9.28c0,-7 6.64,-12.46 12.37,-12.46c3.46,0 7.83,3.27 7.83,12.92c0.00686,1.29354 -0.1785,2.58093 -0.55,3.82c1.17178,0.12616 2.2964,0.53075 3.28,1.18zM27.36,16.19c0.17697,-0.5253 0.26814,-1.07569 0.27,-1.63c-0.09,-4.1 -2.91,-8.92 -6.37,-8.92c-2.73,0 -5.28,2 -5.28,3.73c0,3.09 4.55,5.46 11.38,6.87z" transform="translate(410.47, 51.75999999999999) rotate(0)" vector-effect="non-scaling-stroke"/></g><g><defs><path id="path-1675922975035421955" d="M36.58,22.92c-0.91,-0.09 -1.63,-0.27 -2.36,-0.36c-4.91,6.73 -14,11.1 -22.66,11.1c-0.78774,0.01496 -1.57569,-0.01509 -2.36,-0.09l-0.19,-0.46c1.20351,-2.85498 1.88107,-5.904 2,-9c0,-2.37 -0.64,-3.64 -1.55,-3.64c-1.27,0 -5.19,1.36 -9.19,3.36l-0.27,-0.18l1.18,-6.73c2.82,-1.64 7.28,-3.64 8.92,-3.64c3.54,0 4.64,4 4.64,8.28c0.00848,1.92357 -0.17577,3.84316 -0.55,5.73c3.82,0.18 11,-2.18 15.47,-5.73c-9.46,-2.19 -11.74,-5.37 -11.74,-9.56c0,-5.64 5.73,-12 12,-12c5.83,0 7.55,6.65 7.55,12c-0.00579,1.75449 -0.24797,3.50019 -0.72,5.19c1,0.18 2.18,0.27 3.36,0.36zM33.31,16.51c0.21528,-0.64596 0.33652,-1.31952 0.36,-2c0.02,-5 -2.98,-9 -6.37,-9c-2.73,0 -5.09,1.82 -5.09,3.37c0,1.55 1.36,5.4 11.1,7.63z" vector-effect="non-scaling-stroke"/></defs><path style="stroke-width: 0; stroke-linecap: butt; stroke-linejoin: miter; fill: rgb(224, 220, 206);" d="M36.58,22.92c-0.91,-0.09 -1.63,-0.27 -2.36,-0.36c-4.91,6.73 -14,11.1 -22.66,11.1c-0.78774,0.01496 -1.57569,-0.01509 -2.36,-0.09l-0.19,-0.46c1.20351,-2.85498 1.88107,-5.904 2,-9c0,-2.37 -0.64,-3.64 -1.55,-3.64c-1.27,0 -5.19,1.36 -9.19,3.36l-0.27,-0.18l1.18,-6.73c2.82,-1.64 7.28,-3.64 8.92,-3.64c3.54,0 4.64,4 4.64,8.28c0.00848,1.92357 -0.17577,3.84316 -0.55,5.73c3.82,0.18 11,-2.18 15.47,-5.73c-9.46,-2.19 -11.74,-5.37 -11.74,-9.56c0,-5.64 5.73,-12 12,-12c5.83,0 7.55,6.65 7.55,12c-0.00579,1.75449 -0.24797,3.50019 -0.72,5.19c1,0.18 2.18,0.27 3.36,0.36zM33.31,16.51c0.21528,-0.64596 0.33652,-1.31952 0.36,-2c0.02,-5 -2.98,-9 -6.37,-9c-2.73,0 -5.09,1.82 -5.09,3.37c0,1.55 1.36,5.4 11.1,7.63z" transform="translate(628.31, 10.490000000000009) rotate(0)" vector-effect="non-scaling-stroke"/></g><g><defs><path id="path-1675922975035421953" d="M0,14.1c0,-10.19 6.83,-14.1 10.65,-14.1c4.18,0 11.19,3.37 11.19,14.38c0,8.64 -7.83,11.83 -11.37,11.83c-6.92,0 -10.47,-5.83 -10.47,-12.11zM9.37,7.1c-2.36,0 -6.18,2 -6.18,5.73c0,2.73 2.18,6.19 7.55,6.19c4.73,0 8.19,-3.55 8.19,-4.64c0,-0.91 -3.14,-7.28 -9.56,-7.28z" vector-effect="non-scaling-stroke"/></defs><path style="stroke-width: 0; stroke-linecap: butt; stroke-linejoin: miter; fill: rgb(224, 220, 206);" d="M0,14.1c0,-10.19 6.83,-14.1 10.65,-14.1c4.18,0 11.19,3.37 11.19,14.38c0,8.64 -7.83,11.83 -11.37,11.83c-6.92,0 -10.47,-5.83 -10.47,-12.11zM9.37,7.1c-2.36,0 -6.18,2 -6.18,5.73c0,2.73 2.18,6.19 7.55,6.19c4.73,0 8.19,-3.55 8.19,-4.64c0,-0.91 -3.14,-7.28 -9.56,-7.28z" transform="translate(540.21, 86.67000000000007) rotate(0)" vector-effect="non-scaling-stroke"/></g><g><defs><path id="path-1675922975034421951" d="M523.75 21.85 C525.6394702911961 25.58802100532273 526.7518552859102 29.670167774915825 527.02 33.85 C527.1399241014994 35.56309383619917 526.9880464266133 37.28437415157549 526.5699999999999 38.95 C525.39 42.59 523.66 43.86 521.3799999999999 43.86 C519.3517994150521 43.99157880624889 517.3455848384339 43.37619738469752 515.7399999999999 42.13 C515.7399999999999 42.13 515.4699999999999 42.13 515.4699999999999 42.13 C512.7399999999999 45.5 509.9199999999999 47.32 507.3699999999999 47.32 C505.39104973499593 47.336227604477955 503.5537307959857 46.295588454374624 502.5499999999999 44.59 C501.6201947000301 42.53578067236809 501.18193646305406 40.29313110034216 501.2699999999999 38.040000000000006 C501.2462046871892 36.04612192647481 501.4917565525956 34.05816093393857 501.99999999999994 32.13000000000001 C503.0523608643517 31.358815135786063 504.147438037289 30.647682703360356 505.28 30 C505.28 30 505.54999999999995 30.18 505.54999999999995 30.18 C505.099453818518 31.8438396322283 504.85429692239114 33.556579591470474 504.81999999999994 35.28 C504.81999999999994 38.1 505.81999999999994 39.92 507.72999999999996 39.92 C508.8584707938935 39.951021618203946 509.9475085074527 39.50375456749879 510.72843297711796 38.68854560892142 C511.50935744678316 37.87333665034406 511.90944910835657 36.76609791432542 511.83 35.64 C511.83 35.64 511.56 29.37 511.56 29.37 C512.4136989449983 28.48266403222243 513.3589704479868 27.68823372651928 514.38 27 C514.38 27 514.65 27.18 514.65 27.18 C514.8299999999999 31.91 516.11 34.92 518.02 35.83 C518.905177966605 36.440594696938696 519.9455008085528 36.78736897758794 521.02 36.83 C521.8365569518519 36.81783944547758 522.6171377721932 36.492000662674506 523.1999999999999 35.92 C522.496055158393 32.703883076524235 521.3977481221243 29.586975034758957 519.93 26.64 C521.1099999999999 24.91 522.1999999999999 23.36 523.38 21.9 C523.38 21.9 523.75 21.85 523.75 21.85 Z" vector-effect="non-scaling-stroke"/></defs> <path style="stroke-width: 0; stroke-linecap: butt; stroke-linejoin: miter; fill: rgb(224, 220, 206);" d="M523.7500000000001 21.850000000000023 C525.6394702911962 25.58802100532273 526.7518552859103 29.670167774915853 527.0200000000001 33.85000000000002 C527.1399241014996 35.56309383619919 526.9880464266134 37.28437415157549 526.57 38.94999999999999 C525.3900000000001 42.59000000000003 523.6600000000001 43.860000000000014 521.38 43.860000000000014 C519.3517994150523 43.99157880624887 517.345584838434 43.37619738469755 515.74 42.129999999999995 C515.74 42.129999999999995 515.47 42.129999999999995 515.47 42.129999999999995 C512.74 45.5 509.92 47.31999999999999 507.37 47.31999999999999 C505.39104973499605 47.336227604477926 503.5537307959858 46.29558845437464 502.55 44.59000000000003 C501.6201947000302 42.535780672368105 501.18193646305417 40.29313110034218 501.27000000000004 38.04000000000002 C501.24620468718933 36.046121926474825 501.4917565525957 34.05816093393855 502.00000000000006 32.129999999999995 C503.05236086435184 31.358815135786074 504.14743803728913 30.647682703360374 505.2800000000001 30 C505.2800000000001 30 505.55000000000007 30.180000000000007 505.55000000000007 30.180000000000007 C505.0994538185181 31.84383963222831 504.85429692239126 33.556579591470495 504.82000000000005 35.27999999999997 C504.82000000000005 38.10000000000002 505.82000000000005 39.920000000000016 507.7300000000001 39.920000000000016 C508.8584707938936 39.951021618203924 509.9475085074528 39.50375456749879 510.7284329771181 38.6885456089214 C511.50935744678327 37.87333665034407 511.9094491083567 36.76609791432543 511.8300000000001 35.639999999999986 C511.8300000000001 35.639999999999986 511.5600000000001 29.370000000000005 511.5600000000001 29.370000000000005 C512.4136989449984 28.48266403222243 513.358970447987 27.688233726519286 514.3800000000001 27 C514.3800000000001 27 514.6500000000001 27.180000000000007 514.6500000000001 27.180000000000007 C514.83 31.910000000000025 516.1100000000001 34.920000000000016 518.0200000000001 35.829999999999984 C518.9051779666052 36.44059469693872 519.9455008085529 36.78736897758796 521.0200000000001 36.829999999999984 C521.836556951852 36.8178394454776 522.6171377721934 36.49200066267451 523.2 35.920000000000016 C522.4960551583931 32.70388307652422 521.3977481221244 29.58697503475895 519.9300000000001 26.639999999999986 C521.11 24.910000000000025 522.2 23.360000000000014 523.3800000000001 21.899999999999977 C523.3800000000001 21.899999999999977 523.7500000000001 21.850000000000023 523.7500000000001 21.850000000000023 Z" vector-effect="non-scaling-stroke"/></g><g><defs><path id="path-1675922975034421949" d="M33.73,7.09c-11.2,4.46 -22.55,8.38 -33.55,11.93l-0.18,-0.19l1.36,-6.27c12.74,-4.28 26,-8.74 35.85,-12.56l0.19,0.27zM33.73,20.73c-11.2,4.47 -22.55,8.36 -33.55,11.93l-0.18,-0.18l1.36,-6.28c12.74,-4.27 26,-8.73 35.85,-12.55l0.19,0.27z" vector-effect="non-scaling-stroke"/></defs><path style="stroke-width: 0; stroke-linecap: butt; stroke-linejoin: miter; fill: rgb(224, 220, 206);" d="M33.73,7.09c-11.2,4.46 -22.55,8.38 -33.55,11.93l-0.18,-0.19l1.36,-6.27c12.74,-4.28 26,-8.74 35.85,-12.56l0.19,0.27zM33.73,20.73c-11.2,4.47 -22.55,8.36 -33.55,11.93l-0.18,-0.18l1.36,-6.28c12.74,-4.27 26,-8.73 35.85,-12.55l0.19,0.27z" transform="translate(649.8200000000002, 72.91000000000003) rotate(0)" vector-effect="non-scaling-stroke"/></g><g><defs><path id="path-1675922975034421947" d="M922.68 31.47 C919.68 32.68 916.53 33.75 913.53 34.72 C913.53 34.72 913.53 34.72 913.53 34.72 C913.53 34.72 913.9 33.01 913.9 33.01 C917.37 31.839999999999996 921 30.619999999999997 923.68 29.58 C923.68 29.58 923.68 29.659999999999997 923.68 29.659999999999997 C923.68 29.659999999999997 922.68 31.47 922.68 31.47 Z" vector-effect="non-scaling-stroke"/></defs> <path style="stroke-width: 0; stroke-linecap: butt; stroke-linejoin: miter; fill: rgb(224, 220, 206);" d="M922.68 31.470000000000027 C919.68 32.68000000000001 916.53 33.75 913.53 34.72000000000003 C913.53 34.72000000000003 913.53 34.72000000000003 913.53 34.72000000000003 C913.53 34.72000000000003 913.9 33.00999999999999 913.9 33.00999999999999 C917.37 31.839999999999975 921 30.620000000000005 923.68 29.579999999999984 C923.68 29.579999999999984 923.68 29.659999999999968 923.68 29.659999999999968 C923.68 29.659999999999968 922.68 31.470000000000027 922.68 31.470000000000027 Z" vector-effect="non-scaling-stroke"/></g><g><defs><path id="path-1675922975033421945" d="M9.21,1.88c-3.05,1.22 -6.16,2.28 -9.16,3.25h-0.05l0.37,-1.71c3.48,-1.17 7.1,-2.38 9.78,-3.42l0.05,0.07zM9.21,5.6c-3.05,1.22 -6.16,2.29 -9.16,3.25h-0.05l0.37,-1.72c3.48,-1.16 7.1,-2.38 9.78,-3.42l0.05,0.07z" vector-effect="non-scaling-stroke"/></defs><path style="stroke-width: 0; stroke-linecap: butt; stroke-linejoin: miter; fill: rgb(224, 220, 206);" d="M9.21,1.88c-3.05,1.22 -6.16,2.28 -9.16,3.25h-0.05l0.37,-1.71c3.48,-1.17 7.1,-2.38 9.78,-3.42l0.05,0.07zM9.21,5.6c-3.05,1.22 -6.16,2.29 -9.16,3.25h-0.05l0.37,-1.72c3.48,-1.16 7.1,-2.38 9.78,-3.42l0.05,0.07z" transform="translate(445.53, 21.769999999999982) rotate(0)" vector-effect="non-scaling-stroke"/></g><g><defs><path id="path-1675922975033421943" d="M8.21,6.54c-0.18433,-0.12141 -0.38688,-0.21256 -0.6,-0.27c-1.41098,1.50085 -3.18455,2.61321 -5.15,3.23c-0.4,0 -2.29,-0.15 -2.46,-0.45v-0.12c2.18032,-0.75342 4.26459,-1.76032 6.21,-3c-2,-0.34 -3,-1.09 -3,-2.53c0.08492,-1.83379 1.54674,-3.30426 3.38,-3.4c0.94,0 2.13,0.89 2.13,3.53c-0.00175,0.3388 -0.05227,0.67559 -0.15,1c0.3206,0.03612 0.62856,0.14562 0.9,0.32zM7.39,4.46c0.05079,-0.1447 0.07781,-0.29666 0.08,-0.45c0,-1.12 -0.8,-2.43 -1.74,-2.43c-0.75,0 -1.44,0.55 -1.44,1c0,0.86 1.24,1.51 3.1,1.88z" vector-effect="non-scaling-stroke"/></defs><path style="stroke-width: 0; stroke-linecap: butt; stroke-linejoin: miter; fill: rgb(224, 220, 206);" d="M8.21,6.54c-0.18433,-0.12141 -0.38688,-0.21256 -0.6,-0.27c-1.41098,1.50085 -3.18455,2.61321 -5.15,3.23c-0.4,0 -2.29,-0.15 -2.46,-0.45v-0.12c2.18032,-0.75342 4.26459,-1.76032 6.21,-3c-2,-0.34 -3,-1.09 -3,-2.53c0.08492,-1.83379 1.54674,-3.30426 3.38,-3.4c0.94,0 2.13,0.89 2.13,3.53c-0.00175,0.3388 -0.05227,0.67559 -0.15,1c0.3206,0.03612 0.62856,0.14562 0.9,0.32zM7.39,4.46c0.05079,-0.1447 0.07781,-0.29666 0.08,-0.45c0,-1.12 -0.8,-2.43 -1.74,-2.43c-0.75,0 -1.44,0.55 -1.44,1c0,0.86 1.24,1.51 3.1,1.88z" transform="translate(752.54, 71.69999999999999) rotate(0)" vector-effect="non-scaling-stroke"/></g><g><defs><path id="path-1675922975033421941" d="M9.94,6.21c-0.25,0 -0.45,-0.08 -0.65,-0.1c-1.4984,1.88552 -3.77162,2.98903 -6.18,3c-0.21307,0.01496 -0.42693,0.01496 -0.64,0v-0.12c0.32374,-0.78172 0.50656,-1.61456 0.54,-2.46c0,-0.65 -0.17,-1 -0.42,-1c-0.88365,0.18081 -1.7338,0.49793 -2.52,0.94h-0.07l0.32,-1.84c0.74735,-0.46888 1.5691,-0.80704 2.43,-1c1,0 1.27,1.09 1.27,2.25c0.00352,0.52707 -0.04674,1.05313 -0.15,1.57c1.53193,-0.08997 3.00178,-0.63681 4.22,-1.57c-2.58,-0.59 -3.2,-1.46 -3.2,-2.6c0.12494,-1.75714 1.52286,-3.15506 3.28,-3.28c1.58,0 2.06,1.81 2.06,3.28c-0.00329,0.47683 -0.07056,0.95106 -0.2,1.41c0.30443,0.0514 0.61163,0.08479 0.92,0.1zM9.07,4.47c0.05892,-0.17775 0.09258,-0.36289 0.1,-0.55c0,-1.34 -0.82,-2.43 -1.73,-2.43c-0.75,0 -1.39,0.49 -1.39,0.92c0,0.43 0.34,1.44 3.02,2.06z" vector-effect="non-scaling-stroke"/></defs><path style="stroke-width: 0; stroke-linecap: butt; stroke-linejoin: miter; fill: rgb(224, 220, 206);" d="M9.94,6.21c-0.25,0 -0.45,-0.08 -0.65,-0.1c-1.4984,1.88552 -3.77162,2.98903 -6.18,3c-0.21307,0.01496 -0.42693,0.01496 -0.64,0v-0.12c0.32374,-0.78172 0.50656,-1.61456 0.54,-2.46c0,-0.65 -0.17,-1 -0.42,-1c-0.88365,0.18081 -1.7338,0.49793 -2.52,0.94h-0.07l0.32,-1.84c0.74735,-0.46888 1.5691,-0.80704 2.43,-1c1,0 1.27,1.09 1.27,2.25c0.00352,0.52707 -0.04674,1.05313 -0.15,1.57c1.53193,-0.08997 3.00178,-0.63681 4.22,-1.57c-2.58,-0.59 -3.2,-1.46 -3.2,-2.6c0.12494,-1.75714 1.52286,-3.15506 3.28,-3.28c1.58,0 2.06,1.81 2.06,3.28c-0.00329,0.47683 -0.07056,0.95106 -0.2,1.41c0.30443,0.0514 0.61163,0.08479 0.92,0.1zM9.07,4.47c0.05892,-0.17775 0.09258,-0.36289 0.1,-0.55c0,-1.34 -0.82,-2.43 -1.73,-2.43c-0.75,0 -1.39,0.49 -1.39,0.92c0,0.43 0.34,1.44 3.02,2.06z" transform="translate(474.93000000000006, 94.52999999999997) rotate(0)" vector-effect="non-scaling-stroke"/></g><g><defs><path id="path-1675922975033421939" d="M0,3.85c0,-2.78 1.86,-3.85 2.9,-3.85c1.04,0 3.05,0.92 3.05,3.93c-0.00906,1.72838 -1.37321,3.14534 -3.1,3.22c-1.88,0 -2.85,-1.59 -2.85,-3.3zM2.55,1.94c-0.87728,0.01202 -1.60312,0.68602 -1.68,1.56c0.0286,0.50552 0.26764,0.97596 0.6591,1.2971c0.39146,0.32115 0.89953,0.46364 1.4009,0.3929c0.91351,0.02307 1.76453,-0.46213 2.21,-1.26c-0.37457,-1.13098 -1.4007,-1.9194 -2.59,-1.99z" vector-effect="non-scaling-stroke"/></defs><path style="stroke-width: 0; stroke-linecap: butt; stroke-linejoin: miter; fill: rgb(224, 220, 206);" d="M0,3.85c0,-2.78 1.86,-3.85 2.9,-3.85c1.04,0 3.05,0.92 3.05,3.93c-0.00906,1.72838 -1.37321,3.14534 -3.1,3.22c-1.88,0 -2.85,-1.59 -2.85,-3.3zM2.55,1.94c-0.87728,0.01202 -1.60312,0.68602 -1.68,1.56c0.0286,0.50552 0.26764,0.97596 0.6591,1.2971c0.39146,0.32115 0.89953,0.46364 1.4009,0.3929c0.91351,0.02307 1.76453,-0.46213 2.21,-1.26c-0.37457,-1.13098 -1.4007,-1.9194 -2.59,-1.99z" transform="translate(380.86, 50.25999999999999) rotate(0)" vector-effect="non-scaling-stroke"/></g><g><defs><path id="path-1675922975033421937" d="M148.37 20.58 C148.88291108429962 21.602858784230758 149.18554149288798 22.71817085183724 149.26 23.86 C149.29383880113616 24.32676437712746 149.25333432578913 24.795941216563932 149.14 25.25 C148.80999999999997 26.25 148.33999999999997 26.59 147.72 26.59 C147.16669776382565 26.62491330001036 146.61951653857096 26.457916432562506 146.18 26.12 C146.18 26.12 146.11 26.12 146.11 26.12 C145.61511745595013 26.890713176116208 144.80748501262477 27.405989983848677 143.9 27.53 C143.36225262569877 27.535998804187095 142.86244216341083 27.25366312320002 142.59 26.790000000000003 C142.33704261278808 26.22824845208951 142.2172624316418 25.61565838279851 142.24 25.000000000000004 C142.2324656108355 24.456698073269624 142.299764083659 23.91494536704026 142.44 23.390000000000004 C142.72562118818564 23.174084903764474 143.02272264717075 22.973791785347558 143.32999999999998 22.790000000000003 C143.32999999999998 22.790000000000003 143.39999999999998 22.840000000000003 143.39999999999998 22.840000000000003 C143.28188876148388 23.294182953681396 143.21810920023776 23.76078079648201 143.20999999999998 24.230000000000004 C143.20999999999998 25.000000000000004 143.48 25.500000000000004 143.99999999999997 25.500000000000004 C144.30867129498404 25.509342738181527 144.60681896785297 25.387315289100506 144.82036383178865 25.164237172310543 C145.03390869572436 24.941159055520583 145.1428065076437 24.63796934638527 145.11999999999998 24.330000000000005 C145.11999999999998 24.330000000000005 145 22.62 145 22.62 C145.2354403702759 22.379370117152536 145.49327205847416 22.161719990751415 145.77 21.970000000000002 C145.77 21.970000000000002 145.85000000000002 22.020000000000003 145.85000000000002 22.020000000000003 C145.90000000000003 23.310000000000002 146.24 24.130000000000003 146.76000000000002 24.380000000000003 C147.00123280179778 24.54788319232723 147.2862152928482 24.641718890599925 147.58 24.650000000000002 C147.80339558813802 24.649999999999995 148.0182307810035 24.564065922853793 148.18 24.410000000000004 C147.98418407007918 23.534508274715044 147.6854396007102 22.685268378643656 147.29000000000002 21.880000000000003 C147.61 21.400000000000002 147.91000000000003 20.980000000000004 148.23000000000002 20.580000000000002 C148.23000000000002 20.580000000000002 148.37 20.58 148.37 20.58 Z" vector-effect="non-scaling-stroke"/></defs> <path style="stroke-width: 0; stroke-linecap: butt; stroke-linejoin: miter; fill: rgb(224, 220, 206);" d="M148.37000000000006 20.579999999999984 C148.88291108429968 21.60285878423076 149.18554149288804 22.718170851837215 149.26000000000005 23.860000000000014 C149.29383880113622 24.32676437712746 149.25333432578918 24.79594121656396 149.14000000000004 25.25 C148.81000000000003 26.25 148.34000000000003 26.589999999999975 147.72000000000006 26.589999999999975 C147.1666977638257 26.62491330001035 146.61951653857102 26.457916432562513 146.18000000000006 26.120000000000005 C146.18000000000006 26.120000000000005 146.11000000000007 26.120000000000005 146.11000000000007 26.120000000000005 C145.61511745595018 26.890713176116208 144.80748501262482 27.405989983848656 143.90000000000006 27.529999999999973 C143.36225262569883 27.535998804187102 142.8624421634109 27.2536631232 142.59000000000006 26.79000000000002 C142.33704261278814 26.22824845208953 142.21726243164187 25.61565838279853 142.24000000000007 25 C142.23246561083556 24.45669807326965 142.29976408365906 23.914945367040275 142.44000000000005 23.389999999999986 C142.7256211881857 23.17408490376448 143.0227226471708 22.973791785347544 143.33000000000004 22.79000000000002 C143.33000000000004 22.79000000000002 143.40000000000003 22.840000000000032 143.40000000000003 22.840000000000032 C143.28188876148394 23.2941829536814 143.21810920023782 23.76078079648198 143.21000000000004 24.230000000000018 C143.21000000000004 25 143.48000000000005 25.5 144.00000000000003 25.5 C144.3086712949841 25.509342738181545 144.60681896785303 25.387315289100513 144.8203638317887 25.16423717231055 C145.03390869572442 24.941159055520586 145.14280650764377 24.637969346385262 145.12000000000003 24.329999999999984 C145.12000000000003 24.329999999999984 145.00000000000006 22.620000000000005 145.00000000000006 22.620000000000005 C145.23544037027597 22.37937011715252 145.49327205847422 22.161719990751408 145.77000000000007 21.970000000000027 C145.77000000000007 21.970000000000027 145.85000000000008 22.019999999999982 145.85000000000008 22.019999999999982 C145.9000000000001 23.310000000000002 146.24000000000007 24.129999999999995 146.76000000000008 24.379999999999995 C147.00123280179784 24.54788319232722 147.28621529284825 24.64171889059992 147.58000000000007 24.649999999999977 C147.80339558813807 24.649999999999977 148.01823078100355 24.564065922853786 148.18000000000006 24.410000000000025 C147.98418407007924 23.53450827471505 147.68543960071025 22.685268378643627 147.29000000000008 21.879999999999995 C147.61000000000007 21.399999999999977 147.91000000000008 20.980000000000018 148.23000000000008 20.579999999999984 C148.23000000000008 20.579999999999984 148.37000000000006 20.579999999999984 148.37000000000006 20.579999999999984 Z" vector-effect="non-scaling-stroke"/></g><g><defs><path id="path-1675922975032421935" d="M69.88 72.12 C60.37 75.91000000000001 50.699999999999996 79.23 41.339999999999996 82.25 C41.339999999999996 82.25 41.19 82.1 41.19 82.1 C41.19 82.1 42.349999999999994 76.75999999999999 42.349999999999994 76.75999999999999 C53.169999999999995 73.11999999999999 64.47 69.32999999999998 72.82 66.08999999999999 C72.82 66.08999999999999 72.97 66.32 72.97 66.32 C72.97 66.32 69.88 72.12 69.88 72.12 Z" vector-effect="non-scaling-stroke"/></defs> <path style="stroke-width: 0; stroke-linecap: butt; stroke-linejoin: miter; fill: rgb(224, 220, 206);" d="M69.88000000000005 72.12 C60.370000000000054 75.91000000000003 50.700000000000045 79.23000000000002 41.34000000000006 82.25 C41.34000000000006 82.25 41.190000000000055 82.10000000000002 41.190000000000055 82.10000000000002 C41.190000000000055 82.10000000000002 42.35000000000005 76.75999999999999 42.35000000000005 76.75999999999999 C53.170000000000044 73.12 64.47000000000006 69.32999999999998 72.82000000000005 66.08999999999997 C72.82000000000005 66.08999999999997 72.97000000000006 66.32 72.97000000000006 66.32 C72.97000000000006 66.32 69.88000000000005 72.12 69.88000000000005 72.12 Z" vector-effect="non-scaling-stroke"/></g><g><defs><path id="path-1675922975032421933" d="M51.53,40.43c-1.14036,-0.75034 -2.38786,-1.32352 -3.7,-1.7c-8.64,11 -24.22,17.13 -32.24,20.06c-2.47,0 -14.2,-0.93 -15.28,-2.78l-0.31,-0.77c13.73,-5.4 29.32,-11.42 38.57,-18.36c-12.34,-2.16 -18.66,-6.79 -18.66,-15.74c0,-11.88 11.26,-21.14 21,-21.14c5.86,0 13.27,5.56 13.27,21.91c0.01824,2.19452 -0.2953,4.37919 -0.93,6.48c1.98514,0.21878 3.89036,0.90411 5.56,2zM46.44,27.43c0.30643,-0.89504 0.46517,-1.83397 0.47,-2.78c-0.16,-6.94 -4.94,-15.12 -10.8,-15.12c-4.63,0 -8.95,3.39 -8.95,6.33c0,5.28 7.71,9.29 19.28,11.61z" vector-effect="non-scaling-stroke"/></defs><path style="stroke-width: 0; stroke-linecap: butt; stroke-linejoin: miter; fill: rgb(224, 220, 206);" d="M51.53,40.43c-1.14036,-0.75034 -2.38786,-1.32352 -3.7,-1.7c-8.64,11 -24.22,17.13 -32.24,20.06c-2.47,0 -14.2,-0.93 -15.28,-2.78l-0.31,-0.77c13.73,-5.4 29.32,-11.42 38.57,-18.36c-12.34,-2.16 -18.66,-6.79 -18.66,-15.74c0,-11.88 11.26,-21.14 21,-21.14c5.86,0 13.27,5.56 13.27,21.91c0.01824,2.19452 -0.2953,4.37919 -0.93,6.48c1.98514,0.21878 3.89036,0.90411 5.56,2zM46.44,27.43c0.30643,-0.89504 0.46517,-1.83397 0.47,-2.78c-0.16,-6.94 -4.94,-15.12 -10.8,-15.12c-4.63,0 -8.95,3.39 -8.95,6.33c0,5.28 7.71,9.29 19.28,11.61z" transform="translate(208.76999999999998, 9.699999999999989) rotate(0)" vector-effect="non-scaling-stroke"/></g><g><defs><path id="path-1675922975032421931" d="M51.89,32.45c-1.29,-0.13 -2.33,-0.39 -3.36,-0.51c-7,9.55 -19.89,15.76 -32.17,15.76c-1.12157,0.02142 -2.24344,-0.02199 -3.36,-0.13l-0.25,-0.65c1.69887,-4.04331 2.66069,-8.35795 2.84,-12.74c0,-3.36 -0.91,-5.17 -2.2,-5.17c-1.81,0 -7.36,1.94 -13,4.78l-0.39,-0.25l1.68,-9.56c4,-2.33 10.33,-5.17 12.66,-5.17c5,0 6.58,5.68 6.58,11.75c0.02072,2.73245 -0.23728,5.4599 -0.77,8.14c5.43,0.26 15.63,-3.1 22,-8.14c-13.43,-3.1 -16.66,-7.62 -16.66,-13.56c0,-8 8.13,-17 17.05,-17c8.27,0 10.72,9.43 10.72,17c-0.00019,2.48718 -0.33656,4.96293 -1,7.36c1.42,0.26 3.1,0.39 4.78,0.52zM47.24,23.28c0.3064,-0.91703 0.47819,-1.87366 0.51,-2.84c0,-7 -4.26,-12.66 -9,-12.66c-3.87,0 -7.23,2.58 -7.23,4.78c0,2.2 1.9,7.62 15.72,10.72z" vector-effect="non-scaling-stroke"/></defs><path style="stroke-width: 0; stroke-linecap: butt; stroke-linejoin: miter; fill: rgb(224, 220, 206);" d="M51.89,32.45c-1.29,-0.13 -2.33,-0.39 -3.36,-0.51c-7,9.55 -19.89,15.76 -32.17,15.76c-1.12157,0.02142 -2.24344,-0.02199 -3.36,-0.13l-0.25,-0.65c1.69887,-4.04331 2.66069,-8.35795 2.84,-12.74c0,-3.36 -0.91,-5.17 -2.2,-5.17c-1.81,0 -7.36,1.94 -13,4.78l-0.39,-0.25l1.68,-9.56c4,-2.33 10.33,-5.17 12.66,-5.17c5,0 6.58,5.68 6.58,11.75c0.02072,2.73245 -0.23728,5.4599 -0.77,8.14c5.43,0.26 15.63,-3.1 22,-8.14c-13.43,-3.1 -16.66,-7.62 -16.66,-13.56c0,-8 8.13,-17 17.05,-17c8.27,0 10.72,9.43 10.72,17c-0.00019,2.48718 -0.33656,4.96293 -1,7.36c1.42,0.26 3.1,0.39 4.78,0.52zM47.24,23.28c0.3064,-0.91703 0.47819,-1.87366 0.51,-2.84c0,-7 -4.26,-12.66 -9,-12.66c-3.87,0 -7.23,2.58 -7.23,4.78c0,2.2 1.9,7.62 15.72,10.72z" transform="translate(814.26, 10.819999999999993) rotate(0)" vector-effect="non-scaling-stroke"/></g><g><defs><path id="path-1675922975032421929" d="M0,12.17c0,-8.79 5.89,-12.17 9.19,-12.17c3.61,0 9.66,2.9 9.66,12.41c0,7.46 -6.75,10.21 -9.82,10.21c-5.97,0 -9.03,-5.03 -9.03,-10.45zM8.09,6.17c-2,0 -5.34,1.72 -5.34,4.94c0,2.36 1.88,5.34 6.52,5.34c4.08,0 7.07,-3.06 7.07,-4c0,-0.83 -2.75,-6.32 -8.25,-6.32z" vector-effect="non-scaling-stroke"/></defs><path style="stroke-width: 0; stroke-linecap: butt; stroke-linejoin: miter; fill: rgb(224, 220, 206);" d="M0,12.17c0,-8.79 5.89,-12.17 9.19,-12.17c3.61,0 9.66,2.9 9.66,12.41c0,7.46 -6.75,10.21 -9.82,10.21c-5.97,0 -9.03,-5.03 -9.03,-10.45zM8.09,6.17c-2,0 -5.34,1.72 -5.34,4.94c0,2.36 1.88,5.34 6.52,5.34c4.08,0 7.07,-3.06 7.07,-4c0,-0.83 -2.75,-6.32 -8.25,-6.32z" transform="translate(0, 18.720000000000027) rotate(0)" vector-effect="non-scaling-stroke"/></g><g><defs><path id="path-1675922975031421927" d="M752.91 0 C756.91 8.18 758.4599999999999 16.35 758.4599999999999 20.37 C758.4599999999999 23.14 758.6199999999999 26.07 757.6899999999999 29.01 C755.6899999999999 35.18 752.7499999999999 37.34 748.9 37.34 C745.35 37.34 742.11 36.720000000000006 739.3299999999999 34.410000000000004 C739.3299999999999 34.410000000000004 738.8699999999999 34.410000000000004 738.8699999999999 34.410000000000004 C734.2399999999999 40.11000000000001 729.4599999999999 43.2 725.1399999999999 43.2 C721.7973786082518 43.21019427945843 718.6996904981354 41.448241460067834 717 38.57 C715.4283976379729 35.08421148766062 714.6889231647232 31.28071084052809 714.84 27.46 C714.798178670482 24.086506739152654 715.2119140259099 20.722804662503545 716.07 17.46 C717.8526719910171 16.123646470352078 719.7089228015606 14.888371650386148 721.63 13.760000000000002 C721.63 13.760000000000002 722.09 14.070000000000002 722.09 14.070000000000002 C721.3254102921021 16.888285945780925 720.9122751841968 19.790308167164408 720.86 22.71 C720.86 27.490000000000002 722.5500000000001 30.580000000000002 725.79 30.580000000000002 C731.04 30.580000000000002 732.79 26.410000000000004 732.79 23.330000000000002 C732.79 23.330000000000002 732.3199999999999 12.680000000000001 732.3199999999999 12.680000000000001 C733.7726231133645 11.183076580938605 735.378049188967 9.842428501103583 737.1099999999999 8.680000000000001 C737.1099999999999 8.680000000000001 737.5699999999999 8.990000000000002 737.5699999999999 8.990000000000002 C737.8799999999999 16.990000000000002 740.04 22.1 743.28 23.650000000000002 C744.7798997243673 24.688980931759307 746.5465345744957 25.275545351546537 748.37 25.340000000000003 C749.7560659453848 25.32440802316754 751.0821946154664 24.77245176589034 752.07 23.800000000000004 C751.9200000000001 21.800000000000004 749.9100000000001 15.470000000000004 746.5200000000001 8.060000000000004 C748.5200000000001 5.130000000000004 750.3700000000001 2.5100000000000042 752.3800000000001 0.06000000000000405 C752.3800000000001 0.06000000000000405 752.91 0 752.91 0 Z" vector-effect="non-scaling-stroke"/></defs> <path style="stroke-width: 0; stroke-linecap: butt; stroke-linejoin: miter; fill: rgb(224, 220, 206);" d="M752.9100000000001 0 C756.9100000000001 8.180000000000007 758.46 16.350000000000023 758.46 20.370000000000005 C758.46 23.139999999999986 758.62 26.069999999999993 757.69 29.00999999999999 C755.69 35.18000000000001 752.75 37.34000000000003 748.9000000000001 37.34000000000003 C745.3500000000001 37.34000000000003 742.1100000000001 36.72000000000003 739.33 34.410000000000025 C739.33 34.410000000000025 738.87 34.410000000000025 738.87 34.410000000000025 C734.24 40.110000000000014 729.46 43.19999999999999 725.14 43.19999999999999 C721.797378608252 43.21019427945845 718.6996904981355 41.448241460067834 717.0000000000001 38.56999999999999 C715.428397637973 35.08421148766064 714.6889231647233 31.280710840528116 714.8400000000001 27.45999999999998 C714.7981786704821 24.08650673915264 715.21191402591 20.722804662503563 716.0700000000002 17.45999999999998 C717.8526719910172 16.12364647035207 719.7089228015607 14.888371650386148 721.6300000000001 13.759999999999991 C721.6300000000001 13.759999999999991 722.0900000000001 14.069999999999993 722.0900000000001 14.069999999999993 C721.3254102921022 16.888285945780922 720.9122751841969 19.790308167164426 720.8600000000001 22.70999999999998 C720.8600000000001 27.49000000000001 722.5500000000002 30.579999999999984 725.7900000000001 30.579999999999984 C731.0400000000001 30.579999999999984 732.7900000000001 26.410000000000025 732.7900000000001 23.329999999999984 C732.7900000000001 23.329999999999984 732.32 12.680000000000007 732.32 12.680000000000007 C733.7726231133646 11.183076580938632 735.3780491889671 9.842428501103598 737.11 8.680000000000007 C737.11 8.680000000000007 737.57 8.990000000000009 737.57 8.990000000000009 C737.88 16.99000000000001 740.0400000000001 22.100000000000023 743.2800000000001 23.649999999999977 C744.7798997243674 24.688980931759318 746.5465345744958 25.275545351546555 748.3700000000001 25.340000000000032 C749.7560659453849 25.324408023167564 751.0821946154665 24.772451765890366 752.0700000000002 23.80000000000001 C751.9200000000002 21.80000000000001 749.9100000000002 15.470000000000027 746.5200000000002 8.060000000000002 C748.5200000000002 5.1299999999999955 750.3700000000002 2.509999999999991 752.3800000000002 0.060000000000002274 C752.3800000000002 0.060000000000002274 752.9100000000001 0 752.9100000000001 0 Z" vector-effect="non-scaling-stroke"/></g><g><defs><path id="path-1675922975031421925" d="M587 52.46 C582.65 54.19 578.23 55.72 574 57.1 C574 57.1 573.93 57.03 573.93 57.03 C573.93 57.03 574.4599999999999 54.58 574.4599999999999 54.58 C579.41 52.92 584.5699999999999 51.19 588.4 49.699999999999996 C588.4 49.699999999999996 588.47 49.809999999999995 588.47 49.809999999999995 C588.47 49.809999999999995 587 52.46 587 52.46 Z" vector-effect="non-scaling-stroke"/></defs> <path style="stroke-width: 0; stroke-linecap: butt; stroke-linejoin: miter; fill: rgb(224, 220, 206);" d="M586.9999999999999 52.45999999999998 C582.6499999999999 54.19 578.2299999999999 55.72000000000003 573.9999999999999 57.10000000000002 C573.9999999999999 57.10000000000002 573.9299999999998 57.02999999999997 573.9299999999998 57.02999999999997 C573.9299999999998 57.02999999999997 574.4599999999998 54.579999999999984 574.4599999999998 54.579999999999984 C579.4099999999999 52.920000000000016 584.5699999999998 51.19 588.3999999999999 49.69999999999999 C588.3999999999999 49.69999999999999 588.4699999999999 49.81 588.4699999999999 49.81 C588.4699999999999 49.81 586.9999999999999 52.45999999999998 586.9999999999999 52.45999999999998 Z" vector-effect="non-scaling-stroke"/></g><g><defs><path id="path-1675922975031421923" d="M769.92 110.7 C765.5699999999999 112.43 761.15 113.95 756.92 115.33 C756.92 115.33 756.8399999999999 115.26 756.8399999999999 115.26 C756.8399999999999 115.26 757.3799999999999 112.82000000000001 757.3799999999999 112.82000000000001 C762.3299999999999 111.16000000000001 767.4899999999999 109.42 771.3099999999998 107.94000000000001 C771.3099999999998 107.94000000000001 771.3799999999999 108.04 771.3799999999999 108.04 C771.3799999999999 108.04 769.92 110.7 769.92 110.7 Z" vector-effect="non-scaling-stroke"/></defs> <path style="stroke-width: 0; stroke-linecap: butt; stroke-linejoin: miter; fill: rgb(224, 220, 206);" d="M769.92 110.70000000000005 C765.5699999999999 112.43000000000006 761.15 113.95000000000005 756.92 115.33000000000004 C756.92 115.33000000000004 756.8399999999999 115.2600000000001 756.8399999999999 115.2600000000001 C756.8399999999999 115.2600000000001 757.3799999999999 112.82000000000005 757.3799999999999 112.82000000000005 C762.3299999999999 111.16000000000008 767.4899999999999 109.42000000000007 771.3099999999998 107.94000000000005 C771.3099999999998 107.94000000000005 771.3799999999999 108.04000000000008 771.3799999999999 108.04000000000008 C771.3799999999999 108.04000000000008 769.92 110.70000000000005 769.92 110.70000000000005 Z" vector-effect="non-scaling-stroke"/></g><g><defs><path id="path-1675922975030421921" d="M11.81,9.27c-0.25659,-0.1754 -0.54042,-0.30718 -0.84,-0.39c-2,2.51 -5.56,3.92 -7.4,4.6c-0.56,0 -3.25,-0.22 -3.5,-0.64l-0.07,-0.18c3.15,-1.24 6.72,-2.62 8.84,-4.21c-2.83,-0.49 -4.28,-1.55 -4.28,-3.61c0.12446,-2.6083 2.20252,-4.69932 4.81,-4.84c1.35,0 3,1.27 3,5c0.0057,0.50516 -0.06855,1.00804 -0.22,1.49c0.45727,0.04894 0.89618,0.20667 1.28,0.46zM10.65,6.27c0.06682,-0.2033 0.10059,-0.416 0.1,-0.63c0,-1.59 -1.13,-3.47 -2.47,-3.47c-1.06,0 -2.06,0.78 -2.06,1.45c-0.01,1.26 1.76,2.18 4.42,2.71z" vector-effect="non-scaling-stroke"/></defs><path style="stroke-width: 0; stroke-linecap: butt; stroke-linejoin: miter; fill: rgb(224, 220, 206);" d="M11.81,9.27c-0.25659,-0.1754 -0.54042,-0.30718 -0.84,-0.39c-2,2.51 -5.56,3.92 -7.4,4.6c-0.56,0 -3.25,-0.22 -3.5,-0.64l-0.07,-0.18c3.15,-1.24 6.72,-2.62 8.84,-4.21c-2.83,-0.49 -4.28,-1.55 -4.28,-3.61c0.12446,-2.6083 2.20252,-4.69932 4.81,-4.84c1.35,0 3,1.27 3,5c0.0057,0.50516 -0.06855,1.00804 -0.22,1.49c0.45727,0.04894 0.89618,0.20667 1.28,0.46zM10.65,6.27c0.06682,-0.2033 0.10059,-0.416 0.1,-0.63c0,-1.59 -1.13,-3.47 -2.47,-3.47c-1.06,0 -2.06,0.78 -2.06,1.45c-0.01,1.26 1.76,2.18 4.42,2.71z" transform="translate(69.19000000000005, 25.730000000000018) rotate(0)" vector-effect="non-scaling-stroke"/></g><g><defs><path id="path-1675922975030421919" d="M14.23,8.9c-0.36,0 -0.64,-0.1 -0.92,-0.14c-2.12469,2.70757 -5.36838,4.29811 -8.81,4.32c-0.30634,0.01995 -0.61366,0.01995 -0.92,0l-0.07,-0.17c0.46338,-1.11489 0.72414,-2.30352 0.77,-3.51c0,-0.92 -0.24,-1.41 -0.6,-1.41c-1.24818,0.24261 -2.45203,0.67424 -3.57,1.28l-0.11,-0.07l0.46,-2.62c1.06769,-0.66684 2.24112,-1.14704 3.47,-1.42c1.38,0 1.8,1.56 1.8,3.22c0.00476,0.74849 -0.06559,1.49556 -0.21,2.23c2.17684,-0.13212 4.26528,-0.90833 6,-2.23c-3.68,-0.85 -4.57,-2.08 -4.57,-3.71c0.18199,-2.49991 2.17009,-4.48801 4.67,-4.67c2.27,0 2.94,2.58 2.94,4.67c-0.0065,0.67597 -0.10061,1.34824 -0.28,2c0.39,0.07 0.85,0.1 1.31,0.14zM12.95,6.39c0.08381,-0.25195 0.13096,-0.51463 0.14,-0.78c0,-1.91 -1.16,-3.46 -2.47,-3.46c-1.06,0 -2,0.7 -2,1.31c0,0.61 0.55,2.08 4.33,2.93z" vector-effect="non-scaling-stroke"/></defs><path style="stroke-width: 0; stroke-linecap: butt; stroke-linejoin: miter; fill: rgb(224, 220, 206);" d="M14.23,8.9c-0.36,0 -0.64,-0.1 -0.92,-0.14c-2.12469,2.70757 -5.36838,4.29811 -8.81,4.32c-0.30634,0.01995 -0.61366,0.01995 -0.92,0l-0.07,-0.17c0.46338,-1.11489 0.72414,-2.30352 0.77,-3.51c0,-0.92 -0.24,-1.41 -0.6,-1.41c-1.24818,0.24261 -2.45203,0.67424 -3.57,1.28l-0.11,-0.07l0.46,-2.62c1.06769,-0.66684 2.24112,-1.14704 3.47,-1.42c1.38,0 1.8,1.56 1.8,3.22c0.00476,0.74849 -0.06559,1.49556 -0.21,2.23c2.17684,-0.13212 4.26528,-0.90833 6,-2.23c-3.68,-0.85 -4.57,-2.08 -4.57,-3.71c0.18199,-2.49991 2.17009,-4.48801 4.67,-4.67c2.27,0 2.94,2.58 2.94,4.67c-0.0065,0.67597 -0.10061,1.34824 -0.28,2c0.39,0.07 0.85,0.1 1.31,0.14zM12.95,6.39c0.08381,-0.25195 0.13096,-0.51463 0.14,-0.78c0,-1.91 -1.16,-3.46 -2.47,-3.46c-1.06,0 -2,0.7 -2,1.31c0,0.61 0.55,2.08 4.33,2.93z" transform="translate(155.89, 98.73000000000002) rotate(0)" vector-effect="non-scaling-stroke"/></g><g><defs><path id="path-1675922975030421917" d="M0,5.49c0,-4 2.65,-5.49 4.14,-5.49c1.49,0 4.35,1.31 4.35,5.59c-0.00837,2.4677 -1.95459,4.49319 -4.42,4.6c-2.71,0 -4.07,-2.26 -4.07,-4.7zM3.64,2.76c-1.25813,0.0108 -2.30176,0.97649 -2.41,2.23c0,1.06 0.85,2.41 2.94,2.41c1.84,0 3.19,-1.38 3.19,-1.81c-0.54036,-1.61834 -2.01615,-2.74105 -3.72,-2.83z" vector-effect="non-scaling-stroke"/></defs><path style="stroke-width: 0; stroke-linecap: butt; stroke-linejoin: miter; fill: rgb(224, 220, 206);" d="M0,5.49c0,-4 2.65,-5.49 4.14,-5.49c1.49,0 4.35,1.31 4.35,5.59c-0.00837,2.4677 -1.95459,4.49319 -4.42,4.6c-2.71,0 -4.07,-2.26 -4.07,-4.7zM3.64,2.76c-1.25813,0.0108 -2.30176,0.97649 -2.41,2.23c0,1.06 0.85,2.41 2.94,2.41c1.84,0 3.19,-1.38 3.19,-1.81c-0.54036,-1.61834 -2.01615,-2.74105 -3.72,-2.83z" transform="translate(262.64, 76.34000000000003) rotate(0)" vector-effect="non-scaling-stroke"/></g><g><defs><path id="path-1675922975030421915" d="M344.24 89.14 C344.976099994614 90.59426068626377 345.4082198670854 92.1832369102334 345.51 93.81 C345.55527875517424 94.48198124577314 345.49453588086146 95.15690207147009 345.33 95.81 C344.87 97.23 344.2 97.72 343.33 97.72 C342.5396251488279 97.77133490747586 341.75759358311615 97.53317074882727 341.13 97.05 C341.13 97.05 341 97.05 341 97.05 C339.93 98.36 338.84 99.05 337.85 99.05 C337.09125926934036 99.0509541322371 336.3881926389811 98.65191631500616 336 98 C335.64243476946245 97.20262037515229 335.4747056701118 96.33316749280385 335.51 95.46 C335.4994018602796 94.68422612356385 335.59358579505687 93.91057237360754 335.78999999999996 93.16 C336.19680652348677 92.85272047687302 336.6208302565111 92.56892506500634 337.05999999999995 92.31 C337.05999999999995 92.31 337.16999999999996 92.38 337.16999999999996 92.38 C336.9919196232195 93.03203130852785 336.89782538739917 93.70413299295875 336.89 94.38 C336.89 95.47999999999999 337.28 96.17999999999999 338.02 96.17999999999999 C338.45871588598095 96.19560960254636 338.8832405843614 96.02324467312579 339.186899567446 95.70621705556576 C339.4905585505306 95.38918943800574 339.6444848939156 94.95763692759566 339.60999999999996 94.52 C339.60999999999996 94.52 339.49 92 339.49 92 C339.8242052448881 91.65648537827165 340.19280557215546 91.3482014681935 340.59000000000003 91.08 C340.59000000000003 91.08 340.70000000000005 91.14999999999999 340.70000000000005 91.14999999999999 C340.77000000000004 92.99 341.26000000000005 94.14999999999999 342.01000000000005 94.50999999999999 C342.3507224962973 94.74962634968121 342.7537175532335 94.8851160670994 343.1700000000001 94.89999999999999 C343.48812993764636 94.89862071220969 343.793137705535 94.77302927837319 344.0200000000001 94.55 C343.7448432128796 93.31877533405573 343.3182632768041 92.12636685132507 342.75 91 C343.21 90.33 343.63 89.73 344.09 89.16 C344.09 89.16 344.24 89.14 344.24 89.14 Z" vector-effect="non-scaling-stroke"/></defs> <path style="stroke-width: 0; stroke-linecap: butt; stroke-linejoin: miter; fill: rgb(224, 220, 206);" d="M344.23999999999995 89.13999999999999 C344.97609999461395 90.59426068626374 345.40821986708534 92.1832369102334 345.50999999999993 93.80999999999995 C345.5552787551742 94.48198124577311 345.4945358808614 95.15690207147009 345.3299999999999 95.80999999999995 C344.86999999999995 97.23000000000002 344.19999999999993 97.72000000000003 343.3299999999999 97.72000000000003 C342.53962514882784 97.77133490747588 341.7575935831161 97.53317074882727 341.12999999999994 97.04999999999995 C341.12999999999994 97.04999999999995 340.99999999999994 97.04999999999995 340.99999999999994 97.04999999999995 C339.92999999999995 98.36000000000001 338.8399999999999 99.04999999999995 337.84999999999997 99.04999999999995 C337.0912592693403 99.05095413223705 336.388192638981 98.65191631500613 335.99999999999994 98 C335.6424347694624 97.20262037515226 335.47470567011175 96.3331674928038 335.50999999999993 95.46000000000004 C335.49940186027953 94.6842261235638 335.5935857950568 93.91057237360758 335.7899999999999 93.15999999999997 C336.1968065234867 92.85272047687306 336.62083025651106 92.5689250650064 337.0599999999999 92.30999999999995 C337.0599999999999 92.30999999999995 337.1699999999999 92.38 337.1699999999999 92.38 C336.9919196232194 93.03203130852785 336.8978253873991 93.70413299295876 336.88999999999993 94.38 C336.88999999999993 95.48000000000002 337.2799999999999 96.17999999999995 338.0199999999999 96.17999999999995 C338.4587158859809 96.19560960254637 338.8832405843613 96.02324467312576 339.18689956744595 95.70621705556573 C339.4905585505305 95.3891894380057 339.64448489391555 94.95763692759567 339.6099999999999 94.51999999999998 C339.6099999999999 94.51999999999998 339.48999999999995 92 339.48999999999995 92 C339.82420524488805 91.65648537827167 340.1928055721554 91.34820146819345 340.59 91.08000000000004 C340.59 91.08000000000004 340.7 91.14999999999998 340.7 91.14999999999998 C340.77 92.99000000000001 341.26 94.14999999999998 342.01 94.50999999999999 C342.35072249629724 94.7496263496812 342.75371755323346 94.88511606709937 343.17 94.89999999999998 C343.4881299376463 94.89862071220966 343.79313770553495 94.7730292783732 344.02000000000004 94.54999999999995 C343.7448432128795 93.31877533405577 343.31826327680403 92.12636685132509 342.74999999999994 91 C343.2099999999999 90.33000000000004 343.62999999999994 89.73000000000002 344.0899999999999 89.15999999999997 C344.0899999999999 89.15999999999997 344.23999999999995 89.13999999999999 344.23999999999995 89.13999999999999 Z" vector-effect="non-scaling-stroke"/></g></svg>